<?xml version="1.0" standalone="no"?>
<!DOCTYPE svg PUBLIC "-//W3C//DTD SVG 20010904//EN"
 "http://www.w3.org/TR/2001/REC-SVG-20010904/DTD/svg10.dtd">
<svg version="1.0" xmlns="http://www.w3.org/2000/svg"
 width="2000.000000pt" height="393.000000pt" viewBox="0 0 2000.000000 393.000000"
 preserveAspectRatio="xMidYMid meet">

<g transform="translate(0.000000,393.000000) scale(0.100000,-0.100000)"
fill="#000000" stroke="none">
<path d="M354 3900 c-138 -20 -253 -117 -294 -249 -20 -62 -20 -94 -20 -1687
0 -1619 0 -1625 21 -1687 35 -106 112 -186 217 -229 l57 -23 1590 -3 c1042 -2
1617 1 1667 7 136 18 242 93 296 209 l27 57 0 1670 0 1670 -27 57 c-51 110
-156 188 -279 208 -74 12 -3173 12 -3255 0z m1576 -585 l0 -155 -730 0 -730 0
0 155 0 155 730 0 730 0 0 -155z m1560 0 l0 -155 -185 0 -185 0 0 155 0 155
185 0 185 0 0 -155z m38 -1677 l-3 -1143 -1542 -3 -1543 -2 0 1145 0 1145
1545 0 1545 0 -2 -1142z"/>
<path d="M2057 2508 c-9 -35 -100 -414 -202 -843 -102 -429 -188 -788 -191
-797 -5 -16 5 -18 108 -18 l113 0 204 848 c113 466 207 853 209 860 3 9 -23
12 -111 12 l-115 0 -15 -62z"/>
<path d="M1063 2132 l-401 -267 -1 -150 0 -150 375 -250 c207 -137 389 -258
405 -268 l29 -19 0 169 0 170 -285 173 c-157 95 -285 176 -285 179 0 3 129 80
285 171 l284 165 1 173 c0 94 -1 172 -2 171 -2 0 -184 -120 -405 -267z"/>
<path d="M2492 2228 l3 -172 282 -166 c156 -91 283 -168 283 -172 0 -3 -128
-84 -285 -180 l-285 -173 0 -168 0 -169 29 19 c16 10 198 131 405 268 l375
250 1 150 0 150 -53 34 c-28 19 -211 140 -405 268 l-352 233 2 -172z"/>
<path d="M10762 3329 c-41 -5 -86 -14 -100 -21 l-27 -13 -3 -1306 c-2 -1095 0
-1308 12 -1318 54 -45 610 -59 709 -18 l37 16 0 470 0 471 38 0 37 -1 230
-440 c207 -398 234 -445 281 -488 61 -56 105 -71 207 -71 56 0 95 7 149 26
150 54 313 151 438 262 35 30 42 42 34 53 -26 33 -742 1026 -754 1045 -12 20
5 55 210 425 500 904 456 818 434 839 -10 11 -46 26 -79 35 -138 35 -560 45
-678 15 -28 -8 -54 -21 -62 -34 -8 -11 -116 -235 -240 -496 -124 -261 -230
-479 -235 -484 -7 -7 -10 174 -10 492 l0 501 -29 16 c-62 32 -411 46 -599 24z"/>
<path d="M13240 3324 c-102 -11 -172 -28 -195 -46 l-25 -19 0 -1289 0 -1289
29 -16 c51 -26 211 -38 430 -32 150 4 220 9 259 21 l52 17 0 454 0 455 280 0
280 0 0 -455 0 -454 53 -17 c70 -22 424 -31 561 -15 96 11 133 23 148 45 4 6
8 586 8 1288 0 1139 -2 1278 -15 1292 -38 37 -113 49 -340 53 -231 5 -338 -7
-391 -42 l-24 -15 0 -460 0 -460 -280 0 -280 0 0 464 c0 402 -2 465 -15 476
-32 26 -132 41 -315 44 -102 3 -201 2 -220 0z"/>
<path d="M4604 3299 c-18 -21 -19 -57 -22 -1330 l-2 -1309 32 -20 c55 -33 133
-44 328 -44 200 -1 320 14 360 43 l25 18 3 477 2 476 245 0 c243 0 245 0 259
23 48 73 43 494 -6 555 -8 9 -71 12 -254 12 l-244 0 0 225 0 225 363 2 362 3
20 40 c18 37 20 60 20 290 0 196 -4 259 -15 290 l-15 40 -721 3 -721 2 -19
-21z"/>
<path d="M6892 3310 c-45 -4 -84 -9 -86 -11 -7 -7 -688 -2621 -684 -2624 18
-18 146 -37 278 -42 238 -9 384 19 424 79 9 14 42 136 74 271 l57 247 311 0
311 0 63 -247 c35 -137 69 -260 76 -274 24 -49 109 -75 274 -85 153 -10 497
19 522 44 6 6 -655 2618 -666 2629 -20 20 -755 30 -954 13z m405 -817 c3 -16
43 -197 88 -403 l81 -375 -204 -3 c-113 -1 -206 -1 -208 1 -2 1 44 183 101
402 58 220 105 401 105 403 0 1 7 2 15 2 8 0 18 -12 22 -27z"/>
<path d="M8570 3288 c-34 -56 -45 -134 -45 -313 0 -134 4 -184 18 -237 31
-110 23 -107 302 -110 l240 -3 3 -977 2 -978 23 -14 c42 -28 149 -39 352 -39
196 0 289 10 343 35 l27 13 3 983 2 982 229 0 c126 0 237 3 246 6 96 37 111
563 18 666 -15 17 -61 18 -880 18 l-863 0 -20 -32z"/>
<path d="M15596 3309 c-39 -4 -89 -15 -113 -24 l-43 -17 0 -928 c0 -1015 -1
-1001 59 -1156 55 -141 145 -259 273 -357 195 -148 419 -222 708 -234 577 -24
985 223 1102 670 21 81 22 96 25 1021 3 517 2 950 -2 963 -13 54 -122 73 -415
73 -215 0 -334 -11 -382 -36 l-28 -14 -2 -909 c-3 -1041 7 -940 -101 -995
-147 -74 -374 -17 -407 102 -6 24 -10 351 -10 918 l0 882 -40 16 c-22 9 -79
20 -127 26 -102 11 -396 11 -497 -1z"/>
<path d="M17978 3291 l-33 -29 -3 -1300 -2 -1299 26 -12 c47 -21 233 -34 414
-27 171 5 251 16 277 38 10 8 13 104 13 454 l0 444 63 0 63 0 179 -417 c99
-229 189 -430 200 -447 11 -16 44 -43 74 -58 128 -67 299 -20 522 143 67 49
157 139 177 175 10 18 -21 74 -234 429 l-245 408 23 15 c48 34 122 110 164
169 188 262 226 651 92 933 -58 122 -166 227 -298 293 -106 52 -239 89 -375
106 -54 7 -285 11 -577 11 l-488 0 -32 -29z m959 -677 c96 -48 127 -116 121
-264 -7 -182 -102 -269 -315 -287 l-73 -6 0 298 0 298 104 -5 c90 -4 112 -9
163 -34z"/>
</g>
</svg>
