<?xml version="1.0" encoding="UTF-8"?>
<!DOCTYPE svg PUBLIC "-//W3C//DTD SVG 1.1//EN" "http://www.w3.org/Graphics/SVG/1.1/DTD/svg11.dtd">
<svg xmlns="http://www.w3.org/2000/svg" version="1.1" width="2000px" height="393px" style="shape-rendering:geometricPrecision; text-rendering:geometricPrecision; image-rendering:optimizeQuality; fill-rule:evenodd; clip-rule:evenodd" xmlns:xlink="http://www.w3.org/1999/xlink">
<g><path style="opacity:0.985" fill="#fefffe" d="M 30.5,1.5 C 141.834,1.33333 253.167,1.5 364.5,2C 379.897,6.06283 389.064,15.8962 392,31.5C 392.667,141.167 392.667,250.833 392,360.5C 388.628,375.75 379.461,385.583 364.5,390C 253.167,390.667 141.833,390.667 30.5,390C 15.3694,385.203 6.20277,375.036 3,359.5C 2.33333,250.5 2.33333,141.5 3,32.5C 6.39287,16.9458 15.5595,6.61247 30.5,1.5 Z M 47.5,46.5 C 95.5,46.5 143.5,46.5 191.5,46.5C 191.5,56.1667 191.5,65.8333 191.5,75.5C 143.5,75.5 95.5,75.5 47.5,75.5C 47.5,65.8333 47.5,56.1667 47.5,46.5 Z M 312.5,46.5 C 324.167,46.5 335.833,46.5 347.5,46.5C 347.5,56.1667 347.5,65.8333 347.5,75.5C 335.833,75.5 324.167,75.5 312.5,75.5C 312.5,65.8333 312.5,56.1667 312.5,46.5 Z M 44.5,115.5 C 146.833,115.5 249.167,115.5 351.5,115.5C 351.5,191.167 351.5,266.833 351.5,342.5C 249.167,342.5 146.833,342.5 44.5,342.5C 44.5,266.833 44.5,191.167 44.5,115.5 Z"/></g>
<g><path style="opacity:0.985" fill="#fefffe" d="M 1082.5,57.5 C 1099.58,56.9464 1116.58,57.7798 1133.5,60C 1135.52,60.4497 1137.35,61.283 1139,62.5C 1139.33,95.1667 1139.67,127.833 1140,160.5C 1155.1,127.802 1170.6,95.3024 1186.5,63C 1192.51,60.2954 1198.85,58.9621 1205.5,59C 1225.69,57.845 1245.69,59.1783 1265.5,63C 1269.77,63.9117 1271.6,66.4117 1271,70.5C 1249.03,110.627 1226.87,150.627 1204.5,190.5C 1230.31,226.806 1256.31,262.973 1282.5,299C 1266.63,314.609 1247.96,325.609 1226.5,332C 1211.12,335.765 1198.95,331.265 1190,318.5C 1175.17,290.167 1160.33,261.833 1145.5,233.5C 1143.6,232.534 1141.6,232.201 1139.5,232.5C 1139.67,263.835 1139.5,295.168 1139,326.5C 1135.11,328.516 1130.94,329.683 1126.5,330C 1108.81,330.825 1091.14,330.491 1073.5,329C 1069.34,328.835 1065.51,327.668 1062,325.5C 1061.33,237.833 1061.33,150.167 1062,62.5C 1063.65,61.283 1065.48,60.4497 1067.5,60C 1072.64,59.1617 1077.64,58.3284 1082.5,57.5 Z"/></g>
<g><path style="opacity:0.984" fill="#fefffe" d="M 1327.5,58.5 C 1340.19,58.3088 1352.86,58.8088 1365.5,60C 1370.41,60.3048 1374.91,61.8048 1379,64.5C 1379.5,95.4982 1379.67,126.498 1379.5,157.5C 1397.5,157.5 1415.5,157.5 1433.5,157.5C 1433.33,126.832 1433.5,96.1649 1434,65.5C 1435.8,63.683 1437.97,62.5163 1440.5,62C 1444.15,61.2255 1447.81,60.5588 1451.5,60C 1465.5,59.3333 1479.5,59.3333 1493.5,60C 1500.47,60.1105 1506.64,62.2772 1512,66.5C 1512.67,152.5 1512.67,238.5 1512,324.5C 1511.17,325.333 1510.33,326.167 1509.5,327C 1497.35,329.88 1485.02,331.047 1472.5,330.5C 1462.8,330.516 1453.14,330.016 1443.5,329C 1439.92,328.81 1436.76,327.643 1434,325.5C 1433.5,295.502 1433.33,265.502 1433.5,235.5C 1415.5,235.5 1397.5,235.5 1379.5,235.5C 1379.67,265.502 1379.5,295.502 1379,325.5C 1376.24,327.643 1373.08,328.81 1369.5,329C 1350.17,331 1330.83,331 1311.5,329C 1307.33,328.839 1303.83,327.339 1301,324.5C 1300.33,238.5 1300.33,152.5 1301,66.5C 1302.8,63.2147 1305.63,61.3814 1309.5,61C 1315.65,60.1625 1321.65,59.3291 1327.5,58.5 Z"/></g>
<g><path style="opacity:0.983" fill="#fefffe" d="M 461.5,59.5 C 509.838,59.1667 558.171,59.5001 606.5,60.5C 608.721,64.5407 609.888,68.874 610,73.5C 610.667,87.1667 610.667,100.833 610,114.5C 609.797,119.496 608.297,123.996 605.5,128C 581.502,128.5 557.502,128.667 533.5,128.5C 533.5,142.833 533.5,157.167 533.5,171.5C 549.837,171.333 566.17,171.5 582.5,172C 584.646,174.795 585.813,177.961 586,181.5C 587.971,195.498 587.971,209.498 586,223.5C 585.604,226.696 584.438,229.53 582.5,232C 566.17,232.5 549.837,232.667 533.5,232.5C 533.667,264.168 533.5,295.835 533,327.5C 530.424,330.142 527.257,331.642 523.5,332C 504.492,335.304 485.492,335.304 466.5,332C 462.434,331.556 459.268,329.722 457,326.5C 456.333,239.833 456.333,153.167 457,66.5C 457.145,63.207 458.645,60.8736 461.5,59.5 Z"/></g>
<g><path style="opacity:0.984" fill="#fefffe" d="M 697.5,59.5 C 725.187,59.1355 752.854,59.6355 780.5,61C 783.191,60.9461 785.024,62.1128 786,64.5C 808.167,151.167 830.333,237.833 852.5,324.5C 852.182,325.647 851.516,326.481 850.5,327C 828.999,331.278 807.332,332.278 785.5,330C 776.28,329.664 770.447,325.164 768,316.5C 764.162,301.148 760.329,285.814 756.5,270.5C 736.167,270.5 715.833,270.5 695.5,270.5C 692.032,288.007 687.866,305.34 683,322.5C 676.372,327.371 668.872,329.871 660.5,330C 644.669,331.284 629.002,330.284 613.5,327C 611.59,326.592 610.59,325.425 610.5,323.5C 633.117,236.197 656.117,149.03 679.5,62C 685.62,61.0245 691.62,60.1911 697.5,59.5 Z M 726.5,141.5 C 727.117,141.611 727.617,141.944 728,142.5C 733.82,168.447 739.32,194.447 744.5,220.5C 731.496,220.667 718.496,220.5 705.5,220C 712.731,193.908 719.731,167.742 726.5,141.5 Z"/></g>
<g><path style="opacity:0.99" fill="#fefffe" d="M 857.5,59.5 C 915.834,59.3333 974.168,59.5 1032.5,60C 1035.28,63.3272 1037.12,67.1606 1038,71.5C 1040.72,85.1105 1041.05,98.7771 1039,112.5C 1038.26,118.132 1036.59,123.465 1034,128.5C 1033.25,129.126 1032.42,129.626 1031.5,130C 1015.84,130.5 1000.17,130.667 984.5,130.5C 984.667,195.834 984.5,261.168 984,326.5C 979.555,329.154 974.722,330.654 969.5,331C 953.501,332.965 937.501,332.965 921.5,331C 916.552,330.684 912.052,329.184 908,326.5C 907.5,261.168 907.333,195.834 907.5,130.5C 891.163,130.667 874.83,130.5 858.5,130C 854.601,125.979 852.434,121.145 852,115.5C 850.023,101.504 850.023,87.5041 852,73.5C 852.966,68.4257 854.799,63.7591 857.5,59.5 Z"/></g>
<g><path style="opacity:0.988" fill="#fefffe" d="M 1565.5,59.5 C 1583.25,58.9317 1600.92,59.765 1618.5,62C 1621.46,62.2293 1623.96,63.396 1626,65.5C 1626.33,124.833 1626.67,184.167 1627,243.5C 1629.65,250.808 1634.81,255.308 1642.5,257C 1651.88,259.48 1660.88,258.48 1669.5,254C 1673.33,251.512 1675.49,248.012 1676,243.5C 1676.33,183.833 1676.67,124.167 1677,64.5C 1682.46,61.6761 1688.29,60.1761 1694.5,60C 1710.5,59.3333 1726.5,59.3333 1742.5,60C 1748.71,60.1761 1754.54,61.6761 1760,64.5C 1761.16,94.9159 1761.66,125.416 1761.5,156C 1761.33,185.833 1761.17,215.667 1761,245.5C 1758.7,288.136 1737.2,315.97 1696.5,329C 1665.98,336.813 1635.65,336.147 1605.5,327C 1578.97,317.467 1559.8,299.967 1548,274.5C 1545.55,267.686 1543.88,260.686 1543,253.5C 1542.33,190.833 1542.33,128.167 1543,65.5C 1543.9,64.2986 1545.07,63.4652 1546.5,63C 1552.91,61.4378 1559.24,60.2712 1565.5,59.5 Z"/></g>
<g><path style="opacity:0.985" fill="#fefffe" d="M 1800.5,59.5 C 1834.17,59.3333 1867.83,59.5 1901.5,60C 1968.49,67.0969 1994.32,103.597 1979,169.5C 1973.52,187.632 1963.35,202.465 1948.5,214C 1964.37,240.9 1980.37,267.733 1996.5,294.5C 1992.12,302.718 1986.12,309.551 1978.5,315C 1968.5,322.499 1957.5,328.166 1945.5,332C 1934.87,334.259 1925.37,332.092 1917,325.5C 1903.88,296.659 1891.05,267.659 1878.5,238.5C 1874.89,237.511 1871.23,237.177 1867.5,237.5C 1867.67,267.169 1867.5,296.835 1867,326.5C 1863.79,328.461 1860.29,329.627 1856.5,330C 1838.5,332 1820.5,332 1802.5,330C 1798.92,329.81 1795.76,328.643 1793,326.5C 1792.33,240.5 1792.33,154.5 1793,68.5C 1793.92,64.0856 1796.42,61.0856 1800.5,59.5 Z M 1867.5,128.5 C 1897.09,125.584 1908.92,138.584 1903,167.5C 1899.15,176.676 1892.32,182.176 1882.5,184C 1877.55,185.05 1872.55,185.55 1867.5,185.5C 1867.5,166.5 1867.5,147.5 1867.5,128.5 Z"/></g>
<g><path style="opacity:0.946" fill="#fefffe" d="M 205.5,134.5 C 213.833,134.5 222.167,134.5 230.5,134.5C 217.115,192.254 203.282,249.921 189,307.5C 180.919,308.482 172.752,308.816 164.5,308.5C 178.166,250.501 191.833,192.501 205.5,134.5 Z"/></g>
<g><path style="opacity:0.951" fill="#fefffe" d="M 145.5,151.5 C 146.829,157.128 147.496,163.128 147.5,169.5C 147.333,175.5 147.167,181.5 147,187.5C 128.417,198.541 109.917,209.708 91.5,221C 109.833,232.167 128.167,243.333 146.5,254.5C 147.666,266.82 147.833,279.153 147,291.5C 119.494,273.415 92.161,255.081 65,236.5C 64.3333,226.167 64.3333,215.833 65,205.5C 91.7378,187.245 118.571,169.245 145.5,151.5 Z"/></g>
<g><path style="opacity:0.947" fill="#fefffe" d="M 247.5,151.5 C 275.496,168.592 302.996,186.592 330,205.5C 330.832,216.182 330.666,226.849 329.5,237.5C 302.5,255.5 275.5,273.5 248.5,291.5C 247.167,279.167 247.167,266.833 248.5,254.5C 267.037,243.403 285.37,232.07 303.5,220.5C 284.917,209.626 266.417,198.626 248,187.5C 247.5,175.505 247.333,163.505 247.5,151.5 Z"/></g>
</svg>
